<mxfile host="app.diagrams.net" modified="2020-04-16T03:41:59.629Z" agent="5.0 (Windows NT 10.0; Win64; x64) AppleWebKit/537.36 (KHTML, like Gecko) Chrome/79.0.3945.88 Safari/537.36" etag="jPgBs_NLg83A8mQCe-u8" version="12.9.13" type="github">
  <diagram id="fzBA8Z3BoCt8APpJkTF8" name="第 1 页">
    <mxGraphModel dx="2062" dy="1154" grid="1" gridSize="10" guides="1" tooltips="1" connect="1" arrows="1" fold="1" page="1" pageScale="1" pageWidth="827" pageHeight="1169" math="0" shadow="0">
      <root>
        <mxCell id="0" />
        <mxCell id="1" parent="0" />
        <mxCell id="HY-wm2lC78vgclj_oaPc-1" value="" style="rounded=0;whiteSpace=wrap;html=1;" vertex="1" parent="1">
          <mxGeometry x="80" y="70" width="690" height="80" as="geometry" />
        </mxCell>
        <mxCell id="HY-wm2lC78vgclj_oaPc-2" value="web interface" style="rounded=1;whiteSpace=wrap;html=1;" vertex="1" parent="1">
          <mxGeometry x="120" y="80" width="350" height="60" as="geometry" />
        </mxCell>
        <mxCell id="HY-wm2lC78vgclj_oaPc-3" value="external porgrams" style="rounded=1;whiteSpace=wrap;html=1;" vertex="1" parent="1">
          <mxGeometry x="570" y="80" width="150" height="60" as="geometry" />
        </mxCell>
        <mxCell id="HY-wm2lC78vgclj_oaPc-8" value="oss_server" style="rounded=0;whiteSpace=wrap;html=1;" vertex="1" parent="1">
          <mxGeometry x="100" y="310" width="630" height="140" as="geometry" />
        </mxCell>
        <mxCell id="HY-wm2lC78vgclj_oaPc-9" value="monitoring&lt;br&gt;logic" style="rounded=1;whiteSpace=wrap;html=1;" vertex="1" parent="1">
          <mxGeometry x="140" y="400" width="90" height="40" as="geometry" />
        </mxCell>
        <mxCell id="HY-wm2lC78vgclj_oaPc-10" value="notification&lt;br&gt;logic" style="rounded=1;whiteSpace=wrap;html=1;" vertex="1" parent="1">
          <mxGeometry x="370" y="400" width="90" height="40" as="geometry" />
        </mxCell>
        <mxCell id="HY-wm2lC78vgclj_oaPc-11" value="event&lt;br&gt;logic" style="rounded=1;whiteSpace=wrap;html=1;" vertex="1" parent="1">
          <mxGeometry x="600" y="400" width="90" height="40" as="geometry" />
        </mxCell>
        <mxCell id="HY-wm2lC78vgclj_oaPc-12" value="database" style="rounded=1;whiteSpace=wrap;html=1;" vertex="1" parent="1">
          <mxGeometry x="40" y="560" width="120" height="390" as="geometry" />
        </mxCell>
        <mxCell id="HY-wm2lC78vgclj_oaPc-13" value="data_del_server" style="rounded=1;whiteSpace=wrap;html=1;" vertex="1" parent="1">
          <mxGeometry x="360" y="585" width="200" height="110" as="geometry" />
        </mxCell>
        <mxCell id="HY-wm2lC78vgclj_oaPc-14" value="cos" style="rounded=1;whiteSpace=wrap;html=1;" vertex="1" parent="1">
          <mxGeometry x="400" y="780" width="120" height="60" as="geometry" />
        </mxCell>
        <mxCell id="HY-wm2lC78vgclj_oaPc-15" value="oss_client" style="rounded=1;whiteSpace=wrap;html=1;" vertex="1" parent="1">
          <mxGeometry x="200" y="980" width="120" height="60" as="geometry" />
        </mxCell>
        <mxCell id="HY-wm2lC78vgclj_oaPc-16" value="oss_client" style="rounded=1;whiteSpace=wrap;html=1;" vertex="1" parent="1">
          <mxGeometry x="390" y="980" width="120" height="60" as="geometry" />
        </mxCell>
        <mxCell id="HY-wm2lC78vgclj_oaPc-17" value="oss_client" style="rounded=1;whiteSpace=wrap;html=1;" vertex="1" parent="1">
          <mxGeometry x="580" y="980" width="120" height="60" as="geometry" />
        </mxCell>
        <mxCell id="HY-wm2lC78vgclj_oaPc-18" value="log file" style="rounded=1;whiteSpace=wrap;html=1;" vertex="1" parent="1">
          <mxGeometry x="90" y="190" width="70" height="30" as="geometry" />
        </mxCell>
        <mxCell id="HY-wm2lC78vgclj_oaPc-19" value="log file" style="rounded=1;whiteSpace=wrap;html=1;" vertex="1" parent="1">
          <mxGeometry x="170" y="190" width="70" height="30" as="geometry" />
        </mxCell>
        <mxCell id="HY-wm2lC78vgclj_oaPc-20" value="log file" style="rounded=1;whiteSpace=wrap;html=1;" vertex="1" parent="1">
          <mxGeometry x="250" y="190" width="70" height="30" as="geometry" />
        </mxCell>
        <mxCell id="HY-wm2lC78vgclj_oaPc-22" value="log file" style="rounded=1;whiteSpace=wrap;html=1;" vertex="1" parent="1">
          <mxGeometry x="330" y="190" width="70" height="30" as="geometry" />
        </mxCell>
        <mxCell id="HY-wm2lC78vgclj_oaPc-23" value="log file" style="rounded=1;whiteSpace=wrap;html=1;" vertex="1" parent="1">
          <mxGeometry x="413.5" y="190" width="70" height="30" as="geometry" />
        </mxCell>
      </root>
    </mxGraphModel>
  </diagram>
</mxfile>
